<?xml version="1.0" encoding="utf-8"?>
<!-- Generator: Adobe Illustrator 19.0.0, SVG Export Plug-In . SVG Version: 6.00 Build 0)  -->
<svg version="1.1" id="Layer_1" xmlns="http://www.w3.org/2000/svg" xmlns:xlink="http://www.w3.org/1999/xlink" x="0px" y="0px"
	 viewBox="-261 334 88 125" style="enable-background:new -261 334 88 125;" xml:space="preserve">
<style type="text/css">
	.st0{fill:#EDF0F2;}
</style>
<path class="st0" d="M-261,366v59.9c0,4.5,3.6,8.1,8,8.1h72c4.4,0,8-3.6,8-8.1V366H-261z M-239,428h-16v-16h16V428z M-239,408h-16
	v-16h16V408z M-239,388h-16v-16h16V388z M-219,428h-16v-16h16V428z M-219,408h-16v-16h16V408z M-219,388h-16v-16h16V388z M-199,428
	h-16v-16h16V428z M-199,408h-16v-16h16V408z M-199,388h-16v-16h16V388z M-179,428h-16v-16h16V428z M-179,408h-16v-16h16V408z
	 M-179,388h-16v-16h16V388z"/>
<path class="st0" d="M-181,346h-13v-9c0-1.7-1.3-3-3-3c-1.7,0-3,1.3-3,3v9h-34v-9c0-1.7-1.3-3-3-3c-1.7,0-3,1.3-3,3v9h-13
	c-4.4,0-8,3.6-8,8.1v6.9l0,0v1h88v-1l0,0v-6.9C-173,349.6-176.6,346-181,346z M-237,360c-3.3,0-6-2.7-6-6c0-2.2,1.2-4.2,3-5.2v5.2
	c0,1.7,1.3,3,3,3c1.7,0,3-1.3,3-3v-5.2c1.8,1,3,3,3,5.2C-231,357.3-233.7,360-237,360z M-197,360c-3.3,0-6-2.7-6-6
	c0-2.2,1.2-4.2,3-5.2v5.2c0,1.7,1.3,3,3,3c1.7,0,3-1.3,3-3v-5.2c1.8,1,3,3,3,5.2C-191,357.3-193.7,360-197,360z"/>
</svg>
