<?xml version="1.0" encoding="utf-8"?>
<!-- Generator: Adobe Illustrator 19.0.0, SVG Export Plug-In . SVG Version: 6.00 Build 0)  -->
<svg version="1.1" id="Layer_1" xmlns="http://www.w3.org/2000/svg" xmlns:xlink="http://www.w3.org/1999/xlink" x="0px" y="0px"
	 viewBox="-255 350.3 100 93.7" style="enable-background:new -255 350.3 100 93.7;" xml:space="preserve">
<style type="text/css">
	.st0{fill:#EDF0F2;}
</style>
<path class="st0" d="M-228.6,370.8l-5.9-5.9c-1.6-1.6-4.3-1.6-5.9,0c-1.6,1.6-1.6,4.3,0,5.9l5.9,5.9c1.6,1.6,4.3,1.6,5.9,0
	C-226.9,375.1-226.9,372.4-228.6,370.8z"/>
<path class="st0" d="M-159.2,396.1h-8.3c-2.3,0-4.2,1.9-4.2,4.2s1.9,4.2,4.2,4.2h8.3c2.3,0,4.2-1.9,4.2-4.2
	S-156.9,396.1-159.2,396.1z"/>
<path class="st0" d="M-242.5,396.1h-8.3c-2.3,0-4.2,1.9-4.2,4.2s1.9,4.2,4.2,4.2h8.3c2.3,0,4.2-1.9,4.2-4.2
	S-240.2,396.1-242.5,396.1z"/>
<path class="st0" d="M-184.2,416.9h-41.7c-2.3,0-4.2,1.9-4.2,4.2c0,2.3,1.9,4.2,4.2,4.2h41.7c2.3,0,4.2-1.9,4.2-4.2
	C-180,418.8-181.9,416.9-184.2,416.9z"/>
<path class="st0" d="M-169.6,364.9c-1.6-1.6-4.3-1.6-5.9,0l-5.9,5.9c-1.6,1.6-1.6,4.3,0,5.9c1.6,1.6,4.3,1.6,5.9,0l5.9-5.9
	C-168,369.2-168,366.5-169.6,364.9z"/>
<path class="st0" d="M-205,366.9c2.3,0,4.2-1.9,4.2-4.2v-8.3c0-2.3-1.9-4.2-4.2-4.2c-2.3,0-4.2,1.9-4.2,4.2v8.3
	C-209.2,365.1-207.3,366.9-205,366.9z"/>
<path class="st0" d="M-205,375.3c-13.8,0-25,11.2-25,25c0,2.9,0.5,5.7,1.5,8.3h9.1c-1.4-2.5-2.2-5.3-2.2-8.3
	c0-9.2,7.5-16.7,16.7-16.7c9.2,0,16.7,7.5,16.7,16.7c0,3-0.8,5.9-2.2,8.3h9.1c0.9-2.6,1.5-5.4,1.5-8.3
	C-180,386.4-191.2,375.3-205,375.3z"/>
<path class="st0" d="M-205,409.1c1.1,0,2.1-0.9,2.1-2.1v-8l5.3,5.3c0.8,0.8,2.1,0.8,2.9,0c0.8-0.8,0.8-2.1,0-2.9l-8.8-8.8
	c-0.8-0.8-2.1-0.8-2.9,0l-8.8,8.8c-0.8,0.8-0.8,2.1,0,2.9c0.8,0.8,2.1,0.8,2.9,0l5.3-5.3v8C-207.1,408.2-206.1,409.1-205,409.1z"/>
</svg>
