<?xml version="1.0" encoding="utf-8"?>
<!-- Generator: Adobe Illustrator 19.0.0, SVG Export Plug-In . SVG Version: 6.00 Build 0)  -->
<svg version="1.1" id="Layer_1" xmlns="http://www.w3.org/2000/svg" xmlns:xlink="http://www.w3.org/1999/xlink" x="0px" y="0px"
	 viewBox="-255 350.3 100 93.7" style="enable-background:new -255 350.3 100 93.7;" xml:space="preserve">
<style type="text/css">
	.st0{fill:#EDF0F2;}
</style>
<path class="st0" d="M-159.2,404.4h-8.3c-2.3,0-4.2-1.9-4.2-4.2s1.9-4.2,4.2-4.2h8.3c2.3,0,4.2,1.9,4.2,4.2
	S-156.9,404.4-159.2,404.4z"/>
<path class="st0" d="M-175.5,376.7c-1.6,1.6-4.3,1.6-5.9,0c-1.6-1.6-1.6-4.3,0-5.9l5.9-5.9c1.6-1.6,4.3-1.6,5.9,0
	c1.6,1.6,1.6,4.3,0,5.9L-175.5,376.7z"/>
<path class="st0" d="M-181.5,408.6h-9.1c1.4-2.5,2.2-5.3,2.2-8.3c0-9.2-7.5-16.7-16.7-16.7c-9.2,0-16.7,7.5-16.7,16.7
	c0,3,0.8,5.9,2.3,8.3h-9.1c-0.9-2.6-1.5-5.4-1.5-8.3c0-13.8,11.2-25,25-25c13.8,0,25,11.2,25,25C-180,403.2-180.5,406-181.5,408.6z"
	/>
<path class="st0" d="M-205,366.9c-2.3,0-4.2-1.9-4.2-4.2v-8.3c0-2.3,1.9-4.2,4.2-4.2s4.2,1.9,4.2,4.2v8.3
	C-200.8,365.1-202.7,366.9-205,366.9z"/>
<path class="st0" d="M-234.5,376.7l-5.9-5.9c-1.6-1.6-1.6-4.3,0-5.9c1.6-1.6,4.3-1.6,5.9,0l5.9,5.9c1.6,1.6,1.6,4.3,0,5.9
	C-230.2,378.3-232.8,378.3-234.5,376.7z"/>
<path class="st0" d="M-238.3,400.3c0,2.3-1.9,4.2-4.2,4.2h-8.3c-2.3,0-4.2-1.9-4.2-4.2s1.9-4.2,4.2-4.2h8.3
	C-240.2,396.1-238.3,398-238.3,400.3z"/>
<path class="st0" d="M-205,391.9c1.1,0,2.1,0.9,2.1,2.1v8l5.3-5.3c0.8-0.8,2.1-0.8,2.9,0c0.8,0.8,0.8,2.1,0,2.9l-8.8,8.8
	c-0.8,0.8-2.1,0.8-2.9,0l-8.8-8.8c-0.8-0.8-0.8-2.1,0-2.9c0.8-0.8,2.1-0.8,2.9,0l5.3,5.3v-8C-207.1,392.9-206.1,391.9-205,391.9z"/>
<path class="st0" d="M-225.8,416.9h41.7c2.3,0,4.2,1.9,4.2,4.2c0,2.3-1.9,4.2-4.2,4.2h-41.7c-2.3,0-4.2-1.9-4.2-4.2
	C-230,418.8-228.1,416.9-225.8,416.9z"/>
</svg>
